<svg width="12" height="12" viewBox="0 0 12 12" fill="none" xmlns="http://www.w3.org/2000/svg">
<rect width="12" height="12" fill="#E5E5E5"/>
<g id="RESULT_MAIN" clip-path="url(#clip0_1_8436)">
<rect width="1280" height="1974" transform="translate(-1188 -31)" fill="#202020"/>
<g id="header">
<rect id="back__COLOR:primary-header" x="-1188" y="-31" width="1280" height="74" fill="#202020"/>
<g id="profile">
<g id="profile_2">
<g id="back__COLOR:primary" filter="url(#filter0_d_1_8436)">
<rect x="-78" y="-10" width="100" height="32" rx="16" fill="#202020"/>
</g>
<rect id="back__COLOR:special-1" x="-7" y="-7" width="26" height="26" rx="13" fill="#313131"/>
<path id="icon__COLOR:icon-main" fill-rule="evenodd" clip-rule="evenodd" d="M7.42961 7.96781C8.79144 7.40572 9.74986 6.06478 9.74986 4.5C9.74986 2.42893 8.07093 0.75 5.99986 0.75C3.92879 0.75 2.24986 2.42893 2.24986 4.5C2.24986 6.06473 3.20821 7.40563 4.56996 7.96775C3.17531 8.19993 1.89238 8.76594 0.808105 9.58058L2.18966 11.4194C3.25095 10.6221 4.56849 10.15 5.99961 10.15C7.43073 10.15 8.74828 10.6221 9.80957 11.4194L11.1911 9.58058C10.1069 8.76601 8.82413 8.20003 7.42961 7.96781Z" fill="white"/>
</g>
</g>
</g>
</g>
<defs>
<filter id="filter0_d_1_8436" x="-92" y="-21" width="128" height="60" filterUnits="userSpaceOnUse" color-interpolation-filters="sRGB">
<feFlood flood-opacity="0" result="BackgroundImageFix"/>
<feColorMatrix in="SourceAlpha" type="matrix" values="0 0 0 0 0 0 0 0 0 0 0 0 0 0 0 0 0 0 127 0" result="hardAlpha"/>
<feOffset dy="3"/>
<feGaussianBlur stdDeviation="7"/>
<feColorMatrix type="matrix" values="0 0 0 0 0 0 0 0 0 0 0 0 0 0 0 0 0 0 0.08 0"/>
<feBlend mode="normal" in2="BackgroundImageFix" result="effect1_dropShadow_1_8436"/>
<feBlend mode="normal" in="SourceGraphic" in2="effect1_dropShadow_1_8436" result="shape"/>
</filter>
<clipPath id="clip0_1_8436">
<rect width="1280" height="1974" fill="white" transform="translate(-1188 -31)"/>
</clipPath>
</defs>
</svg>
